<svg width="61" height="58" viewBox="0 0 61 58" fill="none" xmlns="http://www.w3.org/2000/svg">
<path d="M57.5659 26.3636H29.0932V27.9455H27.5113V50.0909H29.0932V51.6727H41.7477V53.2546H43.3295V54.8364H44.9113V56.4182H51.2386V51.6727H57.5659V50.0909H59.1477V27.9455H57.5659V26.3636ZM55.9841 29.5273V48.5091H48.075V53.2546H46.4932V51.6727H44.9113V50.0909H43.3295V48.5091H30.675V29.5273H55.9841Z" fill="#E5E5E5"/>
<rect x="25.9294" y="26.1" width="20.3" height="14.5" fill="transparent"/>
<path d="M4.21822 4.21814H42.1819V6.32723H44.291V35.8545H42.1819V37.9636H25.3091V40.0727H23.2V42.1818H21.091V44.2909H12.6546V37.9636H4.21822V35.8545H2.10913V6.32723H4.21822V4.21814ZM6.32731 8.43632V33.7454H16.8728V40.0727H18.9819V37.9636H21.091V35.8545H23.2V33.7454H40.0728V8.43632H6.32731ZM10.5455 14.7636H35.8546V18.9818H10.5455V14.7636ZM10.5455 23.2H31.6364V27.4181H10.5455V23.2Z" fill="#E5E5E5"/>
</svg>
